<svg height="496pt" viewBox="-48 0 496 496" width="496pt" xmlns="http://www.w3.org/2000/svg"><path d="m112 0h288v432h-288zm0 0" fill="#d3eefd"/><path d="m48 40h304v424h-304zm0 0" fill="#71c8f9"/><path d="m0 80h304v416h-304zm0 0" fill="#d3eefd"/><path d="m248.375 160c-12.847656 0-23.4375-10.457031-23.613281-23.296875l-.761719-56.589844 16-.21875.761719 56.59375c.054687 4.136719 3.46875 7.511719 7.613281 7.511719 4.210938 0 7.625-3.414062 7.625-7.617188v-32.382812h16v32.382812c0 13.023438-10.601562 23.617188-23.625 23.617188zm0 0" fill="#fff"/><path d="m247.640625 224.265625v54.285156c0 35.425781-16.359375 68.875-44.328125 90.609375l-51.3125 39.878906-51.3125-39.886718c-27.96875-21.746094-44.328125-55.183594-44.328125-90.609375v-54.285157l95.640625-55.21875zm0 0" fill="#4dbaf8"/><g fill="#fff"><path d="m192 264h-8v-16c0-17.648438-14.351562-32-32-32s-32 14.351562-32 32v16h-8c-4.414062 0-8 3.574219-8 8v72c0 4.425781 3.585938 8 8 8h80c4.414062 0 8-3.574219 8-8v-72c0-4.425781-3.585938-8-8-8zm-56-16c0-8.824219 7.175781-16 16-16s16 7.175781 16 16v16h-32zm48 88h-64v-56h64zm0 0"/><path d="m144 296h16v24h-16zm0 0"/><path d="m40 120h64v16h-64zm0 0"/><path d="m120 120h32v16h-32zm0 0"/><path d="m40 152h64v16h-64zm0 0"/><path d="m200 440h64v16h-64zm0 0"/><path d="m152 440h32v16h-32zm0 0"/><path d="m200 408h64v16h-64zm0 0"/></g></svg>